<svg width="48" height="48" xmlns="http://www.w3.org/2000/svg" xmlns:xlink="http://www.w3.org/1999/xlink" xml:space="preserve" overflow="hidden"><g transform="translate(-486 -411)"><path d="M523 446 532 446 532 448 523 448 523 457 521 457 521 448 512 448 512 446 521 446 521 437 523 437 523 446ZM490 455 506 455 506 439 490 439 490 455ZM507 437 489 437C488.447 437 488 437.448 488 438L488 456C488 456.552 488.447 457 489 457L507 457C507.553 457 508 456.552 508 456L508 438C508 437.448 507.553 437 507 437L507 437ZM514 431 530 431 530 415 514 415 514 431ZM531 413 513 413C512.447 413 512 413.448 512 414L512 432C512 432.552 512.447 433 513 433L531 433C531.553 433 532 432.552 532 432L532 414C532 413.448 531.553 413 531 413L531 413ZM490 431 506 431 506 415 490 415 490 431ZM507 413 489 413C488.447 413 488 413.448 488 414L488 432C488 432.552 488.447 433 489 433L507 433C507.553 433 508 432.552 508 432L508 414C508 413.448 507.553 413 507 413L507 413Z" fill="#232F3D" fill-rule="evenodd"/></g></svg>