<svg width="80" height="80" xmlns="http://www.w3.org/2000/svg" xmlns:xlink="http://www.w3.org/1999/xlink" xml:space="preserve" overflow="hidden"><g transform="translate(-572 -336)"><path d="M572 336 652 336 652 416 572 416Z" fill="#DD344C" fill-rule="evenodd"/><path d="M588.964 371.808 601.869 371.808 601.869 369.825 588.964 369.825 588.964 371.808ZM633.375 386.231 634.779 387.633 627.407 394.994C627.213 395.187 626.959 395.284 626.706 395.284 626.451 395.284 626.197 395.187 626.004 394.994L622.295 391.291 623.699 389.89 626.706 392.891 633.375 386.231ZM637.944 391.694C637.718 393.557 636.959 395.291 635.747 396.709 634.886 397.716 633.799 398.548 632.604 399.115 631.001 399.876 629.22 400.164 627.446 399.948 625.721 399.738 624.095 399.058 622.74 397.982 620.137 395.916 618.822 392.711 619.222 389.409 619.601 386.288 621.492 383.566 624.28 382.127 625.617 381.438 627.08 381.084 628.57 381.084 628.952 381.084 629.337 381.108 629.721 381.155 632.834 381.534 635.55 383.436 636.981 386.243 637.84 387.926 638.172 389.811 637.944 391.694L637.944 391.694ZM638.75 385.344C637.018 381.948 633.732 379.646 629.962 379.187 627.681 378.908 625.403 379.317 623.369 380.366 619.996 382.106 617.708 385.398 617.251 389.171 616.768 393.161 618.358 397.036 621.505 399.535 623.146 400.837 625.117 401.661 627.205 401.916 627.667 401.972 628.13 402 628.592 402 630.271 402 631.93 401.629 633.456 400.906 634.902 400.22 636.218 399.213 637.257 397.995 638.723 396.28 639.643 394.184 639.916 391.932 640.192 389.657 639.788 387.379 638.75 385.344L638.75 385.344ZM598.891 377.755 602.862 377.755 602.862 375.773 598.891 375.773 598.891 377.755ZM588.964 377.755 596.905 377.755 596.905 375.773 588.964 375.773 588.964 377.755ZM588.106 351.983 632.508 351.983C633.677 351.983 634.628 353.139 634.628 354.561L634.628 361.895 631.65 361.895 631.65 356.939C631.65 356.392 631.206 355.948 630.657 355.948L607.825 355.948C607.276 355.948 606.832 356.392 606.832 356.939L606.832 361.895 585.985 361.895 585.985 354.561C585.985 353.163 586.957 351.983 588.106 351.983L588.106 351.983ZM619.256 361.608C621.561 361.608 623.437 363.461 623.437 365.739 623.437 367.241 622.608 368.623 621.273 369.347 620.007 370.034 618.48 370.025 617.23 369.348 615.901 368.622 615.076 367.24 615.076 365.739 615.076 363.461 616.95 361.608 619.256 361.608L619.256 361.608ZM585.985 383.108 585.985 363.878 606.832 363.878 606.832 380.729C606.832 381.277 607.276 381.721 607.825 381.721L618.203 381.721 618.203 379.738 609.912 379.738C609.998 375.771 612.636 372.344 616.434 371.25 618.189 372.07 620.285 372.078 622.067 371.249 624.229 371.873 626.121 373.318 627.293 375.254L628.992 374.227C627.789 372.243 625.963 370.695 623.846 369.795 624.838 368.694 625.422 367.263 625.422 365.739 625.422 362.368 622.655 359.625 619.256 359.625 615.856 359.625 613.09 362.368 613.09 365.739 613.09 367.257 613.668 368.683 614.654 369.784 612 370.9 609.928 372.992 608.818 375.573L608.818 357.93 629.665 357.93 629.665 373.79 631.65 373.79 631.65 363.878 634.628 363.878 634.629 378.747 636.615 378.747 636.614 354.561C636.614 352.046 634.772 350 632.508 350L588.106 350C585.841 350 584 352.046 584 354.561L584 383.108C584 385.623 585.841 387.668 588.106 387.668L614.774 387.668 614.774 385.686 588.106 385.686C586.957 385.686 585.985 384.506 585.985 383.108L585.985 383.108Z" fill="#FFFFFF" fill-rule="evenodd"/></g></svg>