<svg width="80" height="80" xmlns="http://www.w3.org/2000/svg" xmlns:xlink="http://www.w3.org/1999/xlink" xml:space="preserve" overflow="hidden"><g transform="translate(-314 -124)"><path d="M314 124 394 124 394 204 314 204Z" fill="#C925D1" fill-rule="evenodd"/><path d="M359.091 142.045 356.083 142.045 356.083 140.027 359.091 140.027 359.091 137 361.096 137 361.096 140.027 364.104 140.027 364.104 142.045 361.096 142.045 361.096 145.072 359.091 145.072 359.091 142.045ZM371.123 153.144 368.115 153.144 368.115 151.126 371.123 151.126 371.123 148.099 373.129 148.099 373.129 151.126 376.137 151.126 376.137 153.144 373.129 153.144 373.129 156.172 371.123 156.172 371.123 153.144ZM365.901 185.034C363.986 180.168 359.566 175.72 354.729 173.792 359.566 171.865 363.986 167.417 365.901 162.551 367.816 167.417 372.236 171.865 377.072 173.792 372.236 175.72 367.816 180.168 365.901 185.034L365.901 185.034ZM381.997 172.783C374.944 172.783 366.904 164.692 366.904 157.594 366.904 157.037 366.456 156.585 365.901 156.585 365.347 156.585 364.899 157.037 364.899 157.594 364.899 164.692 356.857 172.783 349.804 172.783 349.251 172.783 348.802 173.235 348.802 173.792 348.802 174.35 349.251 174.801 349.804 174.801 356.857 174.801 364.899 182.893 364.899 189.991 364.899 190.548 365.347 191 365.901 191 366.456 191 366.904 190.548 366.904 189.991 366.904 182.893 374.944 174.801 381.997 174.801 382.551 174.801 383 174.35 383 173.792 383 173.235 382.551 172.783 381.997 172.783L381.997 172.783ZM327.005 152.903C329.925 155.04 335.598 156.172 341.043 156.172 346.487 156.172 352.161 155.04 355.08 152.903L355.08 162.568C353.635 164.501 348.322 166.406 341.243 166.406 333.095 166.406 327.005 163.843 327.005 161.552L327.005 152.903ZM341.043 145.072C349.74 145.072 355.08 147.717 355.08 149.613 355.08 151.509 349.74 154.153 341.043 154.153 332.346 154.153 327.005 151.509 327.005 149.613 327.005 147.717 332.346 145.072 341.043 145.072L341.043 145.072ZM355.08 182.942C355.08 185.268 349.075 187.87 341.038 187.87 333.006 187.87 327.005 185.268 327.005 182.942L327.005 176.494C329.961 178.75 335.748 179.945 341.301 179.945 345.162 179.945 348.896 179.396 351.811 178.399L351.167 176.488C348.454 177.415 344.949 177.927 341.301 177.927 333.119 177.927 327.005 175.364 327.005 173.073L327.005 164.979C329.953 167.231 335.715 168.424 341.243 168.424 347.167 168.424 352.248 167.196 355.08 165.252L355.08 168.28 357.086 168.28 357.086 149.613C357.086 145.353 348.821 143.054 341.043 143.054 333.582 143.054 325.692 145.175 325.062 149.108L325 149.108 325 182.942C325 187.453 333.263 189.888 341.038 189.888 348.818 189.888 357.086 187.453 357.086 182.942L357.086 179.379 355.08 179.379 355.08 182.942Z" fill="#FFFFFF" fill-rule="evenodd"/></g></svg>